<svg version="1.1" id="Layer_1" xmlns="http://www.w3.org/2000/svg" xmlns:xlink="http://www.w3.org/1999/xlink" x="0px" y="0px"
	 width="100%" viewBox="0 0 1029 848" enable-background="new 0 0 1029 848" xml:space="preserve">
<path fill="#000000" opacity="1.000000" stroke="none" 
	d="
M704.000000,849.000000 
	C469.333374,849.000000 235.166718,849.000000 1.000063,849.000000 
	C1.000042,566.333374 1.000042,283.666779 1.000021,1.000139 
	C343.999878,1.000093 686.999756,1.000093 1029.999756,1.000046 
	C1029.999756,283.666534 1029.999756,566.333069 1029.999878,848.999756 
	C921.500000,849.000000 813.000000,849.000000 704.000000,849.000000 
M435.033173,228.954163 
	C435.033173,228.954163 435.097473,228.944687 434.788391,228.375534 
	C433.872284,227.877930 432.956207,227.380325 431.630920,226.331757 
	C429.342682,225.017212 427.147369,223.495850 424.751923,222.420074 
	C400.551575,211.551758 375.423981,208.251022 349.225067,212.980728 
	C324.985901,217.356628 305.149170,228.679016 291.231873,249.313965 
	C283.267578,261.122467 278.928986,274.288696 276.799774,288.423279 
	C274.754486,302.000946 275.093170,315.441223 277.490540,328.784973 
	C281.651764,351.946259 296.382538,368.343506 313.655579,382.811615 
	C323.641541,391.175964 332.339691,400.298676 333.791351,413.967590 
	C334.691406,422.442383 332.566895,435.017365 321.030304,440.129425 
	C312.827271,443.764343 304.291351,444.236542 296.232361,442.291443 
	C286.737976,439.999908 277.792084,435.435669 268.197205,431.250214 
	C262.737854,427.630585 257.278503,424.010925 251.384720,420.103271 
	C251.303253,421.558472 251.234909,422.779602 250.997787,424.731934 
	C250.006012,427.165649 248.677628,429.520538 248.086060,432.047943 
	C246.361465,439.416077 244.962799,446.859894 243.377991,454.261536 
	C241.310852,463.915833 239.056763,473.532990 237.197281,483.226410 
	C236.817566,485.205811 237.122299,488.698364 238.313507,489.373871 
	C246.290115,493.897339 254.233139,498.949310 262.861420,501.758789 
	C282.171967,508.046600 302.218536,508.284698 322.279419,506.009644 
	C346.907013,503.216675 367.807251,493.178741 383.702454,473.752869 
	C391.090332,464.723938 396.492188,454.588043 400.062012,443.461121 
	C404.961761,428.188995 406.966583,412.745728 405.183868,396.622589 
	C403.842804,384.493988 401.532867,372.823029 395.935516,361.981323 
	C389.002197,348.551849 377.656891,339.193481 366.110413,329.958252 
	C357.535248,323.099579 349.597656,315.506592 347.485474,303.942261 
	C345.855743,295.019348 346.978333,286.352905 353.779266,280.039246 
	C360.629364,273.679932 369.326843,272.481354 378.391388,274.994080 
	C389.255219,278.005615 398.583923,283.839844 407.292358,290.793701 
	C409.461212,292.525574 411.571289,293.694824 413.240906,290.320374 
	C418.887482,278.908051 424.489655,267.473785 430.663757,255.634964 
	C433.755371,249.480865 436.815216,243.310532 439.952911,237.180023 
	C441.371735,234.407883 441.322845,232.201538 438.039948,230.959076 
	C438.039948,230.959076 438.097443,230.944534 437.788818,230.375870 
	C436.871185,229.880325 435.953522,229.384781 435.033173,228.954163 
M595.672852,351.621185 
	C599.153931,343.094299 602.635010,334.567413 606.690002,325.528076 
	C611.063721,306.923370 613.953491,288.186707 610.971741,269.046143 
	C609.111816,257.106628 604.808228,246.250519 596.608826,237.044647 
	C582.439026,221.135376 563.556091,216.014130 543.593201,215.236984 
	C518.645264,214.265793 493.630585,215.061172 468.645447,214.938889 
	C464.945282,214.920776 463.629700,216.125046 462.866547,219.857285 
	C457.127686,247.922760 451.065125,275.921906 445.137268,303.948883 
	C440.059998,327.954102 435.044769,351.972473 429.969849,375.978210 
	C424.078674,403.845093 418.138214,431.701538 412.247162,459.568451 
	C409.226624,473.856781 406.267120,488.158020 403.174194,502.960114 
	C425.278046,502.960114 446.909119,503.013763 468.537689,502.809784 
	C469.680969,502.799011 471.532959,500.766327 471.828522,499.408081 
	C477.955078,471.253937 484.128693,443.105438 489.698242,414.838593 
	C490.816650,409.162415 492.835876,407.640442 498.277893,407.893036 
	C511.212006,408.493439 524.043701,407.342804 536.616394,403.978271 
	C549.642273,400.492493 561.116211,393.946716 571.075562,385.114288 
	C576.684265,380.140198 581.098572,373.819092 586.648499,367.765320 
	C589.470642,362.524170 592.292786,357.283020 595.672852,351.621185 
M758.499146,503.000000 
	C764.446106,503.000000 770.393066,503.000000 776.711548,503.000000 
	C776.827576,500.587860 777.014587,498.801697 776.983521,497.019379 
	C776.679688,479.570831 776.300476,462.123596 776.019104,444.674713 
	C775.643738,421.395721 775.357361,398.115356 774.993469,374.836182 
	C774.694580,355.721466 774.315918,336.608032 774.013367,317.493347 
	C773.652771,294.713989 773.293518,271.934448 773.019836,249.153946 
	C772.901733,239.325073 773.015442,229.493546 772.985352,219.663345 
	C772.979919,217.904495 772.785950,216.146225 772.655518,214.000244 
	C770.131958,214.000244 768.155212,214.000259 766.178467,214.000259 
	C743.018921,214.000183 719.854736,214.262070 696.702698,213.844681 
	C689.505188,213.714920 685.362366,214.927292 682.400085,222.606705 
	C674.682556,242.614166 665.612610,262.098602 657.136353,281.815033 
	C647.228333,304.862244 637.411743,327.948792 627.492004,350.990997 
	C618.744568,371.310333 609.863586,391.572235 601.126343,411.895966 
	C591.479309,434.335815 581.921936,456.814270 572.340149,479.282135 
	C569.061340,486.970306 565.826477,494.677277 562.322266,502.965240 
	C586.938110,502.965240 610.745178,503.006073 634.550781,502.837860 
	C635.674438,502.829926 637.333923,501.178406 637.818542,499.932404 
	C644.157104,483.638092 650.445923,467.321564 656.439392,450.898254 
	C657.587280,447.752563 659.142456,446.914429 662.206360,446.951019 
	C673.201355,447.082306 684.198975,447.000885 695.195557,447.000031 
	C698.628296,446.999756 702.061035,447.000000 705.499634,447.000000 
	C705.499634,465.980225 705.499634,484.167358 705.499634,503.000000 
	C722.945374,503.000000 740.222412,503.000000 758.499146,503.000000 
z"/>
<path fill="#0B4C86" opacity="1.000000" stroke="none" 
	d="
M757.999268,503.000000 
	C740.222412,503.000000 722.945374,503.000000 705.499634,503.000000 
	C705.499634,484.167358 705.499634,465.980225 705.499634,447.000000 
	C702.061035,447.000000 698.628296,446.999756 695.195557,447.000031 
	C684.198975,447.000885 673.201355,447.082306 662.206360,446.951019 
	C659.142456,446.914429 657.587280,447.752563 656.439392,450.898254 
	C650.445923,467.321564 644.157104,483.638092 637.818542,499.932404 
	C637.333923,501.178406 635.674438,502.829926 634.550781,502.837860 
	C610.745178,503.006073 586.938110,502.965240 562.322266,502.965240 
	C565.826477,494.677277 569.061340,486.970306 572.340149,479.282135 
	C581.921936,456.814270 591.479309,434.335815 601.126343,411.895966 
	C609.863586,391.572235 618.744568,371.310333 627.492004,350.990997 
	C637.411743,327.948792 647.228333,304.862244 657.136353,281.815033 
	C665.612610,262.098602 674.682556,242.614166 682.400085,222.606705 
	C685.362366,214.927292 689.505188,213.714920 696.702698,213.844681 
	C719.854736,214.262070 743.018921,214.000183 766.178467,214.000259 
	C768.155212,214.000259 770.131958,214.000244 772.655518,214.000244 
	C772.785950,216.146225 772.979919,217.904495 772.985352,219.663345 
	C773.015442,229.493546 772.901733,239.325073 773.019836,249.153946 
	C773.293518,271.934448 773.652771,294.713989 774.013367,317.493347 
	C774.315918,336.608032 774.694580,355.721466 774.993469,374.836182 
	C775.357361,398.115356 775.643738,421.395721 776.019104,444.674713 
	C776.300476,462.123596 776.679688,479.570831 776.983521,497.019379 
	C777.014587,498.801697 776.827576,500.587860 776.711548,503.000000 
	C770.393066,503.000000 764.446106,503.000000 757.999268,503.000000 
M688.662720,387.999268 
	C695.603821,387.999268 702.544983,387.999268 710.042664,387.999268 
	C711.576660,352.716492 713.079041,318.159882 714.623047,282.645905 
	C703.053833,318.335022 691.849121,352.899841 680.471069,387.999237 
	C683.423645,387.999237 685.574463,387.999237 688.662720,387.999268 
z"/>
<path fill="#0B4C86" opacity="1.000000" stroke="none" 
	d="
M586.050903,368.104797 
	C581.098572,373.819092 576.684265,380.140198 571.075562,385.114288 
	C561.116211,393.946716 549.642273,400.492493 536.616394,403.978271 
	C524.043701,407.342804 511.212006,408.493439 498.277893,407.893036 
	C492.835876,407.640442 490.816650,409.162415 489.698242,414.838593 
	C484.128693,443.105438 477.955078,471.253937 471.828522,499.408081 
	C471.532959,500.766327 469.680969,502.799011 468.537689,502.809784 
	C446.909119,503.013763 425.278046,502.960114 403.174194,502.960114 
	C406.267120,488.158020 409.226624,473.856781 412.247162,459.568451 
	C418.138214,431.701538 424.078674,403.845093 429.969849,375.978210 
	C435.044769,351.972473 440.059998,327.954102 445.137268,303.948883 
	C451.065125,275.921906 457.127686,247.922760 462.866547,219.857285 
	C463.629700,216.125046 464.945282,214.920776 468.645447,214.938889 
	C493.630585,215.061172 518.645264,214.265793 543.593201,215.236984 
	C563.556091,216.014130 582.439026,221.135376 596.608826,237.044647 
	C604.808228,246.250519 609.111816,257.106628 610.971741,269.046143 
	C613.953491,288.186707 611.063721,306.923370 606.081299,325.929321 
	C604.473816,327.388519 603.092834,328.277710 602.539001,329.532104 
	C599.253052,336.974457 596.158752,344.501465 592.847778,352.316681 
	C591.438599,355.115143 590.054443,357.542358 588.960205,360.093903 
	C587.842224,362.700623 587.008850,365.429413 586.050903,368.104797 
M541.998718,291.744263 
	C541.609680,278.621887 535.872986,273.273773 523.147034,273.967896 
	C520.592712,274.107239 519.486206,274.854675 518.907898,277.603607 
	C514.841675,296.933472 510.499329,316.205048 506.301605,335.507507 
	C505.378540,339.751984 504.681793,344.045654 503.843262,348.516968 
	C516.345398,350.604065 524.684875,344.904266 530.814453,336.096375 
	C539.820679,323.154816 542.320435,308.203674 541.998718,291.744263 
z"/>
<path fill="#0B4C86" opacity="1.000000" stroke="none" 
	d="
M430.108795,256.047882 
	C424.489655,267.473785 418.887482,278.908051 413.240906,290.320374 
	C411.571289,293.694824 409.461212,292.525574 407.292358,290.793701 
	C398.583923,283.839844 389.255219,278.005615 378.391388,274.994080 
	C369.326843,272.481354 360.629364,273.679932 353.779266,280.039246 
	C346.978333,286.352905 345.855743,295.019348 347.485474,303.942261 
	C349.597656,315.506592 357.535248,323.099579 366.110413,329.958252 
	C377.656891,339.193481 389.002197,348.551849 395.935516,361.981323 
	C401.532867,372.823029 403.842804,384.493988 405.183868,396.622589 
	C406.966583,412.745728 404.961761,428.188995 400.062012,443.461121 
	C396.492188,454.588043 391.090332,464.723938 383.702454,473.752869 
	C367.807251,493.178741 346.907013,503.216675 322.279419,506.009644 
	C302.218536,508.284698 282.171967,508.046600 262.861420,501.758789 
	C254.233139,498.949310 246.290115,493.897339 238.313507,489.373871 
	C237.122299,488.698364 236.817566,485.205811 237.197281,483.226410 
	C239.056763,473.532990 241.310852,463.915833 243.377991,454.261536 
	C244.962799,446.859894 246.361465,439.416077 248.086060,432.047943 
	C248.677628,429.520538 250.006012,427.165649 251.429230,424.437378 
	C254.136627,425.417053 256.337921,426.856750 258.706696,427.925232 
	C261.940460,429.383850 265.301727,430.559784 268.608337,431.856873 
	C277.792084,435.435669 286.737976,439.999908 296.232361,442.291443 
	C304.291351,444.236542 312.827271,443.764343 321.030304,440.129425 
	C332.566895,435.017365 334.691406,422.442383 333.791351,413.967590 
	C332.339691,400.298676 323.641541,391.175964 313.655579,382.811615 
	C296.382538,368.343506 281.651764,351.946259 277.490540,328.784973 
	C275.093170,315.441223 274.754486,302.000946 276.799774,288.423279 
	C278.928986,274.288696 283.267578,261.122467 291.231873,249.313965 
	C305.149170,228.679016 324.985901,217.356628 349.225067,212.980728 
	C375.423981,208.251022 400.551575,211.551758 424.751923,222.420074 
	C427.147369,223.495850 429.342682,225.017212 432.039490,226.844223 
	C433.331207,227.886017 434.214325,228.415359 435.097473,228.944687 
	C435.097473,228.944687 435.033173,228.954163 435.239990,229.158813 
	C436.330353,229.890488 437.213898,230.417511 438.097443,230.944534 
	C438.097443,230.944534 438.039948,230.959076 438.020294,231.337784 
	C435.819427,237.175934 433.477356,242.578842 431.529755,248.120377 
	C430.651062,250.620529 430.558197,253.396866 430.108795,256.047882 
z"/>
<path fill="#0B4C86" opacity="1.000000" stroke="none" 
	d="
M593.000000,352.000000 
	C596.158752,344.501465 599.253052,336.974457 602.539001,329.532104 
	C603.092834,328.277710 604.473816,327.388519 605.794312,326.185547 
	C602.635010,334.567413 599.153931,343.094299 595.041443,351.824493 
	C593.940002,352.018555 593.470032,352.009277 593.000000,352.000000 
z"/>
<path fill="#0B4C86" opacity="1.000000" stroke="none" 
	d="
M430.386292,255.841431 
	C430.558197,253.396866 430.651062,250.620529 431.529755,248.120377 
	C433.477356,242.578842 435.819427,237.175934 438.029419,231.309570 
	C441.322845,232.201538 441.371735,234.407883 439.952911,237.180023 
	C436.815216,243.310532 433.755371,249.480865 430.386292,255.841431 
z"/>
<path fill="#0B4C86" opacity="1.000000" stroke="none" 
	d="
M268.402771,431.553558 
	C265.301727,430.559784 261.940460,429.383850 258.706696,427.925232 
	C256.337921,426.856750 254.136627,425.417053 251.513611,424.071777 
	C251.234909,422.779602 251.303253,421.558472 251.384720,420.103271 
	C257.278503,424.010925 262.737854,427.630585 268.402771,431.553558 
z"/>
<path fill="#0B4C86" opacity="1.000000" stroke="none" 
	d="
M592.847778,352.316681 
	C593.470032,352.009277 593.940002,352.018555 594.762512,352.034851 
	C592.292786,357.283020 589.470642,362.524170 586.349731,367.935059 
	C587.008850,365.429413 587.842224,362.700623 588.960205,360.093903 
	C590.054443,357.542358 591.438599,355.115143 592.847778,352.316681 
z"/>
<path fill="#0B4C86" opacity="1.000000" stroke="none" 
	d="
M434.942932,228.660110 
	C434.214325,228.415359 433.331207,227.886017 432.244080,227.119705 
	C432.956207,227.380325 433.872284,227.877930 434.942932,228.660110 
z"/>
<path fill="#0B4C86" opacity="1.000000" stroke="none" 
	d="
M437.943115,230.660202 
	C437.213898,230.417511 436.330353,229.890488 435.241333,229.126343 
	C435.953522,229.384781 436.871185,229.880325 437.943115,230.660202 
z"/>
<path fill="#000000" opacity="1.000000" stroke="none" 
	d="
M688.193970,387.999268 
	C685.574463,387.999237 683.423645,387.999237 680.471069,387.999237 
	C691.849121,352.899841 703.053833,318.335022 714.623047,282.645905 
	C713.079041,318.159882 711.576660,352.716492 710.042664,387.999268 
	C702.544983,387.999268 695.603821,387.999268 688.193970,387.999268 
z"/>
<path fill="#000000" opacity="1.000000" stroke="none" 
	d="
M541.999146,292.214966 
	C542.320435,308.203674 539.820679,323.154816 530.814453,336.096375 
	C524.684875,344.904266 516.345398,350.604065 503.843262,348.516968 
	C504.681793,344.045654 505.378540,339.751984 506.301605,335.507507 
	C510.499329,316.205048 514.841675,296.933472 518.907898,277.603607 
	C519.486206,274.854675 520.592712,274.107239 523.147034,273.967896 
	C535.872986,273.273773 541.609680,278.621887 541.999146,292.214966 
z"/>
</svg>